<svg width="210" height="128" viewBox="0 0 210 128" fill="none" xmlns="http://www.w3.org/2000/svg">
<mask id="path-1-outside-1_368_383" maskUnits="userSpaceOnUse" x="0" y="0" width="210" height="128" fill="black">
<rect fill="white" width="210" height="128"/>
<path d="M5 25C5 13.9543 13.9543 5 25 5H185C196.046 5 205 13.9543 205 25V128H5V25Z"/>
</mask>
<path d="M5 25C5 13.9543 13.9543 5 25 5H185C196.046 5 205 13.9543 205 25V128H5V25Z" fill="#323232"/>
<path d="M0 25C0 11.1929 11.1929 0 25 0H185C198.807 0 210 11.1929 210 25H200C200 16.7157 193.284 10 185 10H25C16.7157 10 10 16.7157 10 25H0ZM205 128H5H205ZM0 128V25C0 11.1929 11.1929 0 25 0V10C16.7157 10 10 16.7157 10 25V128H0ZM185 0C198.807 0 210 11.1929 210 25V128H200V25C200 16.7157 193.284 10 185 10V0Z" fill="#5F5F5F" mask="url(#path-1-outside-1_368_383)"/>
<rect x="40" y="55" width="129" height="73" fill="#515151"/>
<path d="M40 65C40 59.4772 44.4772 55 50 55H159C164.523 55 169 59.4772 169 65V85V128H103.5V115H129C134.523 115 139 110.523 139 105V95C139 89.4772 134.523 85 129 85H127H80C74.4772 85 70 89.4772 70 95V105C70 110.523 74.4772 115 80 115H103.5V128H40V65Z" fill="#D9D9D9"/>
</svg>
