<svg width="210" height="128" viewBox="0 0 210 128" fill="none" xmlns="http://www.w3.org/2000/svg">
<mask id="path-1-outside-1_368_347" maskUnits="userSpaceOnUse" x="0" y="0" width="210" height="128" fill="black">
<rect fill="white" width="210" height="128"/>
<path d="M5 25C5 13.9543 13.9543 5 25 5H185C196.046 5 205 13.9543 205 25V127.951H5V25Z"/>
</mask>
<path d="M5 25C5 13.9543 13.9543 5 25 5H185C196.046 5 205 13.9543 205 25V127.951H5V25Z" fill="#323232"/>
<path d="M0 25C0 11.1929 11.1929 0 25 0H185C198.807 0 210 11.1929 210 25H200C200 16.7157 193.284 10 185 10H25C16.7157 10 10 16.7157 10 25H0ZM205 127.951H5H205ZM0 127.951V25C0 11.1929 11.1929 0 25 0V10C16.7157 10 10 16.7157 10 25V127.951H0ZM185 0C198.807 0 210 11.1929 210 25V127.951H200V25C200 16.7157 193.284 10 185 10V0Z" fill="#5F5F5F" mask="url(#path-1-outside-1_368_347)"/>
<path d="M40 65C40 59.4772 44.4772 55 50 55H60C65.5228 55 70 59.4772 70 65V128H40V65Z" fill="white"/>
<path d="M139 65C139 59.4772 143.477 55 149 55H159C164.523 55 169 59.4772 169 65V128H139V124.5C139 119.253 134.747 115 129.5 115V115C124.253 115 120 119.253 120 124.5V128H90.0001L90.0001 124.5C90 119.253 94.2534 115 99.5001 115V115C104.747 115 109 110.747 109 105.5V95C109 89.4772 113.477 85 119 85H129C134.523 85 139 80.5228 139 75V65Z" fill="white"/>
</svg>
