<svg width="210" height="128" viewBox="0 0 210 128" fill="none" xmlns="http://www.w3.org/2000/svg">
<mask id="path-1-outside-1_368_450" maskUnits="userSpaceOnUse" x="0" y="0" width="210" height="128" fill="black">
<rect fill="white" width="210" height="128"/>
<path d="M5 103C5 114.046 13.9543 123 25 123H185C196.046 123 205 114.046 205 103V0H5V103Z"/>
</mask>
<path d="M5 103C5 114.046 13.9543 123 25 123H185C196.046 123 205 114.046 205 103V0H5V103Z" fill="#323232"/>
<path d="M0 103C0 116.807 11.1929 128 25 128H185C198.807 128 210 116.807 210 103H200C200 111.284 193.284 118 185 118H25C16.7157 118 10 111.284 10 103H0ZM205 0H5H205ZM0 0V103C0 116.807 11.1929 128 25 128V118C16.7157 118 10 111.284 10 103V0H0ZM185 128C198.807 128 210 116.807 210 103V0H200V103C200 111.284 193.284 118 185 118V128Z" fill="#5F5F5F" mask="url(#path-1-outside-1_368_450)"/>
<rect width="129" height="73" transform="matrix(1 0 0 -1 40 73)" fill="#515151"/>
<path d="M139 0H169V63C169 68.5228 164.523 73 159 73H149C143.477 73 139 68.5228 139 63V0Z" fill="#D9D9D9"/>
<path d="M40 0H70V3C70 8.52285 74.4772 13 80 13V13C85.5228 13 90 8.52285 90 3V0H120V3C120 8.52285 115.523 13 110 13V13C104.477 13 100 17.4772 100 23V33C100 38.5228 95.5228 43 90 43H80C74.4772 43 70 47.4772 70 53V63C70 68.5228 65.5228 73 60 73H50C44.4772 73 40 68.5228 40 63V0Z" fill="#D9D9D9"/>
</svg>
