<svg width="210" height="128" viewBox="0 0 210 128" fill="none" xmlns="http://www.w3.org/2000/svg">
<mask id="path-1-outside-1_368_339" maskUnits="userSpaceOnUse" x="0" y="0" width="210" height="128" fill="black">
<rect fill="white" width="210" height="128"/>
<path d="M5 25C5 13.9543 13.9543 5 25 5H185C196.046 5 205 13.9543 205 25V128H5V25Z"/>
</mask>
<path d="M5 25C5 13.9543 13.9543 5 25 5H185C196.046 5 205 13.9543 205 25V128H5V25Z" fill="#323232"/>
<path d="M0 25C0 11.1929 11.1929 0 25 0H185C198.807 0 210 11.1929 210 25H200C200 16.7157 193.284 10 185 10H25C16.7157 10 10 16.7157 10 25H0ZM205 128H5H205ZM0 128V25C0 11.1929 11.1929 0 25 0V10C16.7157 10 10 16.7157 10 25V128H0ZM185 0C198.807 0 210 11.1929 210 25V128H200V25C200 16.7157 193.284 10 185 10V0Z" fill="#5F5F5F" mask="url(#path-1-outside-1_368_339)"/>
<rect x="40" y="55" width="129" height="73" fill="#515151"/>
<path d="M40 65C40 59.4772 44.4772 55 50 55H60C65.5228 55 70 59.4772 70 65V105C70 110.523 74.4772 115 80 115H82.5C86.6421 115 90 111.642 90 107.5V107.5C90 103.358 93.3579 100 97.5 100V100C101.642 100 105 96.6421 105 92.5V92.5C105 88.3579 108.358 85 112.5 85V85C116.642 85 120 81.6421 120 77.5V75.5C120 72.4624 122.462 70 125.5 70V70C128.538 70 131 67.5376 131 64.5V62.5C131 58.3579 134.358 55 138.5 55H159C164.523 55 169 59.4772 169 65V75.5C169 80.7467 164.747 85 159.5 85H157.5C153.358 85 150 88.3579 150 92.5V92.5C150 96.6421 146.642 100 142.5 100V100C138.358 100 135 103.358 135 107.5V107.5C135 111.642 131.642 115 127.5 115V115C123.358 115 120 118.358 120 122.5V128H70H40V65Z" fill="#D9D9D9"/>
</svg>
