<svg width="210" height="128" viewBox="0 0 210 128" fill="none" xmlns="http://www.w3.org/2000/svg">
<mask id="path-1-outside-1_368_447" maskUnits="userSpaceOnUse" x="0" y="0" width="210" height="128" fill="black">
<rect fill="white" width="210" height="128"/>
<path d="M5 103C5 114.046 13.9543 123 25 123H185C196.046 123 205 114.046 205 103V0H5V103Z"/>
</mask>
<path d="M5 103C5 114.046 13.9543 123 25 123H185C196.046 123 205 114.046 205 103V0H5V103Z" fill="#323232"/>
<path d="M0 103C0 116.807 11.1929 128 25 128H185C198.807 128 210 116.807 210 103H200C200 111.284 193.284 118 185 118H25C16.7157 118 10 111.284 10 103H0ZM205 0H5H205ZM0 0V103C0 116.807 11.1929 128 25 128V118C16.7157 118 10 111.284 10 103V0H0ZM185 128C198.807 128 210 116.807 210 103V0H200V103C200 111.284 193.284 118 185 118V128Z" fill="#5F5F5F" mask="url(#path-1-outside-1_368_447)"/>
<path d="M40 63C40 68.5228 44.4772 73 50 73H60C65.5228 73 70 68.5228 70 63V23C70 17.4772 74.4772 13 80 13H82.5C86.6421 13 90 16.3579 90 20.5V20.5C90 24.6421 93.3579 28 97.5 28V28C101.642 28 105 31.3579 105 35.5V35.5C105 39.6421 108.358 43 112.5 43V43C116.642 43 120 46.3579 120 50.5V52.5C120 55.5376 122.462 58 125.5 58V58C128.538 58 131 60.4624 131 63.5V65.5C131 69.6421 134.358 73 138.5 73H159C164.523 73 169 68.5228 169 63V52.5C169 47.2533 164.747 43 159.5 43H157.5C153.358 43 150 39.6421 150 35.5V35.5C150 31.3579 146.642 28 142.5 28V28C138.358 28 135 24.6421 135 20.5V20.5C135 16.3579 131.642 13 127.5 13V13C123.358 13 120 9.64214 120 5.5V0H70H40V63Z" fill="white"/>
</svg>
