<svg width="210" height="128" viewBox="0 0 210 128" fill="none" xmlns="http://www.w3.org/2000/svg">
<mask id="path-1-outside-1_368_331" maskUnits="userSpaceOnUse" x="0" y="0" width="210" height="128" fill="black">
<rect fill="white" width="210" height="128"/>
<path d="M5 25C5 13.9543 13.9543 5 25 5H185C196.046 5 205 13.9543 205 25V128H5V25Z"/>
</mask>
<path d="M5 25C5 13.9543 13.9543 5 25 5H185C196.046 5 205 13.9543 205 25V128H5V25Z" fill="#323232"/>
<path d="M0 25C0 11.1929 11.1929 0 25 0H185C198.807 0 210 11.1929 210 25H200C200 16.7157 193.284 10 185 10H25C16.7157 10 10 16.7157 10 25H0ZM205 128H5H205ZM0 128V25C0 11.1929 11.1929 0 25 0V10C16.7157 10 10 16.7157 10 25V128H0ZM185 0C198.807 0 210 11.1929 210 25V128H200V25C200 16.7157 193.284 10 185 10V0Z" fill="#5F5F5F" mask="url(#path-1-outside-1_368_331)"/>
<rect x="40" y="55" width="129" height="73" fill="#515151"/>
<path d="M40 65C40 59.4772 44.4772 55 50 55H68C73.5228 55 78 59.4772 78 65V75.5C78 77.433 79.567 79 81.5 79V79C83.433 79 85 80.567 85 82.5V94C85 96.2091 86.7909 98 89 98V98C91.2091 98 93 99.7909 93 102V115.5C93 117.433 94.567 119 96.5 119V119C98.433 119 100 120.567 100 122.5V128H78V113C78 110.791 76.2091 109 74 109V109C71.7909 109 70 110.791 70 113V128H40V65Z" fill="#D9D9D9"/>
<path d="M169 65C169 59.4772 164.523 55 159 55H141C135.477 55 131 59.4772 131 65V75.5C131 77.433 129.433 79 127.5 79V79C125.567 79 124 80.567 124 82.5V94C124 96.2091 122.209 98 120 98V98C117.791 98 116 99.7909 116 102V115.5C116 117.433 114.433 119 112.5 119V119C110.567 119 109 120.567 109 122.5V128H131V113C131 110.791 132.791 109 135 109V109C137.209 109 139 110.791 139 113V128H169V65Z" fill="#D9D9D9"/>
</svg>
