<svg width="210" height="128" viewBox="0 0 210 128" fill="none" xmlns="http://www.w3.org/2000/svg">
<mask id="path-1-outside-1_368_441" maskUnits="userSpaceOnUse" x="0" y="0" width="210" height="128" fill="black">
<rect fill="white" width="210" height="128"/>
<path d="M5 103C5 114.046 13.9543 123 25 123H185C196.046 123 205 114.046 205 103V0H5V103Z"/>
</mask>
<path d="M5 103C5 114.046 13.9543 123 25 123H185C196.046 123 205 114.046 205 103V0H5V103Z" fill="#323232"/>
<path d="M0 103C0 116.807 11.1929 128 25 128H185C198.807 128 210 116.807 210 103H200C200 111.284 193.284 118 185 118H25C16.7157 118 10 111.284 10 103H0ZM205 0H5H205ZM0 0V103C0 116.807 11.1929 128 25 128V118C16.7157 118 10 111.284 10 103V0H0ZM185 128C198.807 128 210 116.807 210 103V0H200V103C200 111.284 193.284 118 185 118V128Z" fill="#5F5F5F" mask="url(#path-1-outside-1_368_441)"/>
<path d="M100 0C100 2.20914 101.791 4 104 4H105C107.209 4 109 2.20914 109 0V0H124V9C124 12.3137 121.314 15 118 15V15C114.686 15 112 17.6863 112 21V24.5C112 28.6421 108.642 32 104.5 32V32C100.358 32 97 28.6421 97 24.5V21C97 17.6863 94.3137 15 91 15V15C87.6863 15 85 12.3137 85 9V0H100V0Z" fill="white"/>
<path d="M139 0H169V63C169 68.5228 164.523 73 159 73H149C143.477 73 139 68.5228 139 63V0Z" fill="white"/>
<path d="M40 0H70V63C70 68.5228 65.5228 73 60 73H50C44.4772 73 40 68.5228 40 63V0Z" fill="white"/>
</svg>
