<svg width="210" height="128" viewBox="0 0 210 128" fill="none" xmlns="http://www.w3.org/2000/svg">
<mask id="path-1-outside-1_368_299" maskUnits="userSpaceOnUse" x="0" y="0" width="210" height="128" fill="black">
<rect fill="white" width="210" height="128"/>
<path d="M5 25C5 13.9543 13.9543 5 25 5H185C196.046 5 205 13.9543 205 25V128H5V25Z"/>
</mask>
<path d="M5 25C5 13.9543 13.9543 5 25 5H185C196.046 5 205 13.9543 205 25V128H5V25Z" fill="#323232"/>
<path d="M0 25C0 11.1929 11.1929 0 25 0H185C198.807 0 210 11.1929 210 25H200C200 16.7157 193.284 10 185 10H25C16.7157 10 10 16.7157 10 25H0ZM205 128H5H205ZM0 128V25C0 11.1929 11.1929 0 25 0V10C16.7157 10 10 16.7157 10 25V128H0ZM185 0C198.807 0 210 11.1929 210 25V128H200V25C200 16.7157 193.284 10 185 10V0Z" fill="#5F5F5F" mask="url(#path-1-outside-1_368_299)"/>
<path d="M90 62.5C90 58.3579 93.3579 55 97.5 55H112.5C116.642 55 120 58.3579 120 62.5V62.5C120 66.6421 123.358 70 127.5 70H145C149.971 70 154 74.0294 154 79V80.5C154 84.6421 157.358 88 161.5 88V88C165.642 88 169 91.3579 169 95.5V128H139V109.5C139 104.253 134.747 100 129.5 100V100C124.253 100 120 104.253 120 109.5V128H90V110C90 104.477 85.5228 100 80 100V100C74.4772 100 70 104.477 70 110V128H40V92.5C40 88.3579 43.3579 85 47.5 85V85C51.6421 85 55 81.6421 55 77.5V77.5C55 73.3579 58.3579 70 62.5 70H82.5C86.6421 70 90 66.6421 90 62.5V62.5Z" fill="white"/>
</svg>
