<svg class = "svggg_" width="210" height="128" viewBox="0 0 210 128" fill="none" xmlns="http://www.w3.org/2000/svg">
<mask id="path-1-outside-1_368_417" maskUnits="userSpaceOnUse" x="0" y="0" width="210" height="128" fill="black">
<rect fill="white" width="210" height="128"/>
<path d="M5 103C5 114.046 13.9543 123 25 123H185C196.046 123 205 114.046 205 103V0H5V103Z"/>
</mask>
<path d="M5 103C5 114.046 13.9543 123 25 123H185C196.046 123 205 114.046 205 103V0H5V103Z" fill="#323232"/>
<path d="M0 103C0 116.807 11.1929 128 25 128H185C198.807 128 210 116.807 210 103H200C200 111.284 193.284 118 185 118H25C16.7157 118 10 111.284 10 103H0ZM205 0H5H205ZM0 0V103C0 116.807 11.1929 128 25 128V118C16.7157 118 10 111.284 10 103V0H0ZM185 128C198.807 128 210 116.807 210 103V0H200V103C200 111.284 193.284 118 185 118V128Z" fill="#5F5F5F" mask="url(#path-1-outside-1_368_417)"/>
<path d="M90 65.5C90 69.6421 93.3579 73 97.5 73H112.5C116.642 73 120 69.6421 120 65.5V65.5C120 61.3579 123.358 58 127.5 58H145C149.971 58 154 53.9706 154 49V47.5C154 43.3579 157.358 40 161.5 40V40C165.642 40 169 36.6421 169 32.5V0H139V18.5C139 23.7467 134.747 28 129.5 28V28C124.253 28 120 23.7467 120 18.5V0H90V18C90 23.5228 85.5228 28 80 28V28C74.4772 28 70 23.5228 70 18V0H40V35.5C40 39.6421 43.3579 43 47.5 43V43C51.6421 43 55 46.3579 55 50.5V50.5C55 54.6421 58.3579 58 62.5 58H82.5C86.6421 58 90 61.3579 90 65.5V65.5Z" fill="white"/>
</svg>
