<svg width="210" height="128" viewBox="0 0 210 128" fill="none" xmlns="http://www.w3.org/2000/svg">
<mask id="path-1-outside-1_368_295" maskUnits="userSpaceOnUse" x="0" y="0" width="210" height="128" fill="black">
<rect fill="white" width="210" height="128"/>
<path d="M5 25C5 13.9543 13.9543 5 25 5H185C196.046 5 205 13.9543 205 25V128H5V25Z"/>
</mask>
<path d="M5 25C5 13.9543 13.9543 5 25 5H185C196.046 5 205 13.9543 205 25V128H5V25Z" fill="#323232"/>
<path d="M0 25C0 11.1929 11.1929 0 25 0H185C198.807 0 210 11.1929 210 25H200C200 16.7157 193.284 10 185 10H25C16.7157 10 10 16.7157 10 25H0ZM205 128H5H205ZM0 128V25C0 11.1929 11.1929 0 25 0V10C16.7157 10 10 16.7157 10 25V128H0ZM185 0C198.807 0 210 11.1929 210 25V128H200V25C200 16.7157 193.284 10 185 10V0Z" fill="#5F5F5F" mask="url(#path-1-outside-1_368_295)"/>
<path d="M40 65C40 59.4772 44.4772 55 50 55H60C65.5228 55 70 59.4772 70 65V67.5C70 71.6421 73.3579 75 77.5 75V75C81.6421 75 85 78.3579 85 82.5V87.5C85 91.6421 88.3579 95 92.5 95H95C97.7614 95 100 97.2386 100 100V100.5C100 102.985 102.015 105 104.5 105V105C106.985 105 109 102.985 109 100.5V100C109 97.2386 111.239 95 114 95H116.5C120.642 95 124 91.6421 124 87.5V82.5C124 78.3579 127.358 75 131.5 75V75C135.642 75 139 71.6421 139 67.5V65C139 59.4772 143.477 55 149 55H159C164.523 55 169 59.4772 169 65V77.5C169 81.6421 165.642 85 161.5 85V85C157.358 85 154 88.3579 154 92.5V97.5C154 101.642 150.642 105 146.5 105V105C142.358 105 139 108.358 139 112.5V117.5C139 121.642 135.642 125 131.5 125H127C125.343 125 124 126.343 124 128V128H85V128C85 126.343 83.6569 125 82 125H77.5C73.3579 125 70 121.642 70 117.5V112.5C70 108.358 66.6421 105 62.5 105V105C58.3579 105 55 101.642 55 97.5V92.5C55 88.3579 51.6421 85 47.5 85V85C43.3579 85 40 81.6421 40 77.5V65Z" fill="white"/>
</svg>
