<svg width="210" height="128" viewBox="0 0 210 128" fill="none" xmlns="http://www.w3.org/2000/svg">
<mask id="path-1-outside-1_368_414" maskUnits="userSpaceOnUse" x="0" y="0" width="210" height="128" fill="black">
<rect fill="white" width="210" height="128"/>
<path d="M5 103C5 114.046 13.9543 123 25 123H185C196.046 123 205 114.046 205 103V0H5V103Z"/>
</mask>
<path d="M5 103C5 114.046 13.9543 123 25 123H185C196.046 123 205 114.046 205 103V0H5V103Z" fill="#323232"/>
<path d="M0 103C0 116.807 11.1929 128 25 128H185C198.807 128 210 116.807 210 103H200C200 111.284 193.284 118 185 118H25C16.7157 118 10 111.284 10 103H0ZM205 0H5H205ZM0 0V103C0 116.807 11.1929 128 25 128V118C16.7157 118 10 111.284 10 103V0H0ZM185 128C198.807 128 210 116.807 210 103V0H200V103C200 111.284 193.284 118 185 118V128Z" fill="#5F5F5F" mask="url(#path-1-outside-1_368_414)"/>
<rect width="129" height="73" transform="matrix(1 0 0 -1 40 73)" fill="#515151"/>
<path d="M40 63C40 68.5228 44.4772 73 50 73H60C65.5228 73 70 68.5228 70 63V60.5C70 56.3579 73.3579 53 77.5 53V53C81.6421 53 85 49.6421 85 45.5V40.5C85 36.3579 88.3579 33 92.5 33H95C97.7614 33 100 30.7614 100 28V27.5C100 25.0147 102.015 23 104.5 23V23C106.985 23 109 25.0147 109 27.5V28C109 30.7614 111.239 33 114 33H116.5C120.642 33 124 36.3579 124 40.5V45.5C124 49.6421 127.358 53 131.5 53V53C135.642 53 139 56.3579 139 60.5V63C139 68.5228 143.477 73 149 73H159C164.523 73 169 68.5228 169 63V50.5C169 46.3579 165.642 43 161.5 43V43C157.358 43 154 39.6421 154 35.5V30.5C154 26.3579 150.642 23 146.5 23V23C142.358 23 139 19.6421 139 15.5V10.5C139 6.35786 135.642 2.99999 131.5 2.99999H127C125.343 2.99999 124 1.65685 124 -2.14576e-06V-2.14576e-06H85V-2.14576e-06C85 1.65685 83.6569 2.99999 82 2.99999H77.5C73.3579 2.99999 70 6.35785 70 10.5V15.5C70 19.6421 66.6421 23 62.5 23V23C58.3579 23 55 26.3579 55 30.5V35.5C55 39.6421 51.6421 43 47.5 43V43C43.3579 43 40 46.3579 40 50.5V63Z" fill="#D9D9D9"/>
</svg>
