<svg width="210" height="128" viewBox="0 0 210 128" fill="none" xmlns="http://www.w3.org/2000/svg">
<mask id="path-1-outside-1_368_402" maskUnits="userSpaceOnUse" x="0" y="0" width="210" height="128" fill="black">
<rect fill="white" width="210" height="128"/>
<path d="M5 103C5 114.046 13.9543 123 25 123H185C196.046 123 205 114.046 205 103V0H5V103Z"/>
</mask>
<path d="M5 103C5 114.046 13.9543 123 25 123H185C196.046 123 205 114.046 205 103V0H5V103Z" fill="#323232"/>
<path d="M0 103C0 116.807 11.1929 128 25 128H185C198.807 128 210 116.807 210 103H200C200 111.284 193.284 118 185 118H25C16.7157 118 10 111.284 10 103H0ZM205 0H5H205ZM0 0V103C0 116.807 11.1929 128 25 128V118C16.7157 118 10 111.284 10 103V0H0ZM185 128C198.807 128 210 116.807 210 103V0H200V103C200 111.284 193.284 118 185 118V128Z" fill="#5F5F5F" mask="url(#path-1-outside-1_368_402)"/>
<path d="M40 43V0H70V33C70 38.5228 74.4772 43 80 43V43C85.5228 43 90 38.5228 90 33V0H120V33.5C120 38.7467 124.253 43 129.5 43V43C134.747 43 139 38.7467 139 33.5V0H169V43V50.5C169 54.6421 172.358 58 176.5 58V58C180.642 58 184 61.3579 184 65.5V80.5C184 84.6421 180.642 88 176.5 88V88C172.358 88 169 84.6421 169 80.5V80.5C169 76.3579 165.642 73 161.5 73H50C44.4771 73 40 68.5228 40 63V43Z" fill="white"/>
</svg>
