<svg class = "svggg_" width="210" height="128" viewBox="0 0 210 128" fill="none" xmlns="http://www.w3.org/2000/svg">
<mask id="path-1-outside-1_368_399" maskUnits="userSpaceOnUse" x="0" y="0" width="210" height="128" fill="black">
<rect fill="white" width="210" height="128"/>
<path d="M5 103C5 114.046 13.9543 123 25 123H185C196.046 123 205 114.046 205 103V0H5V103Z"/>
</mask>
<path d="M5 103C5 114.046 13.9543 123 25 123H185C196.046 123 205 114.046 205 103V0H5V103Z" fill="#323232"/>
<path d="M0 103C0 116.807 11.1929 128 25 128H185C198.807 128 210 116.807 210 103H200C200 111.284 193.284 118 185 118H25C16.7157 118 10 111.284 10 103H0ZM205 0H5H205ZM0 0V103C0 116.807 11.1929 128 25 128V118C16.7157 118 10 111.284 10 103V0H0ZM185 128C198.807 128 210 116.807 210 103V0H200V103C200 111.284 193.284 118 185 118V128Z" fill="#5F5F5F" mask="url(#path-1-outside-1_368_399)"/>
<path d="M70 0H169V27H139V23C139 17.4772 134.523 13 129 13H110C104.477 13 100 17.4772 100 23V33C100 38.5228 104.477 43 110 43H129C134.523 43 139 38.5228 139 33V27H169V63C169 68.5228 164.523 73 159 73H80C74.4772 73 70 68.5228 70 63V0Z" fill="white"/>
</svg>
