<svg width="210" height="128" viewBox="0 0 210 128" fill="none" xmlns="http://www.w3.org/2000/svg">
<mask id="path-1-outside-1_368_375" maskUnits="userSpaceOnUse" x="0" y="0" width="210" height="128" fill="black">
<rect fill="white" width="210" height="128"/>
<path d="M5 25C5 13.9543 13.9543 5 25 5H185C196.046 5 205 13.9543 205 25V128H5V25Z"/>
</mask>
<path d="M5 25C5 13.9543 13.9543 5 25 5H185C196.046 5 205 13.9543 205 25V128H5V25Z" fill="#323232"/>
<path d="M0 25C0 11.1929 11.1929 0 25 0H185C198.807 0 210 11.1929 210 25H200C200 16.7157 193.284 10 185 10H25C16.7157 10 10 16.7157 10 25H0ZM205 128H5H205ZM0 128V25C0 11.1929 11.1929 0 25 0V10C16.7157 10 10 16.7157 10 25V128H0ZM185 0C198.807 0 210 11.1929 210 25V128H200V25C200 16.7157 193.284 10 185 10V0Z" fill="#5F5F5F" mask="url(#path-1-outside-1_368_375)"/>
<path d="M40 65C40 59.4772 44.4772 55 50 55H129C134.523 55 139 59.4772 139 65V105.414C139 110.937 143.477 115.414 149 115.414H159C164.523 115.414 169 119.891 169 125.414V128H91V115.414H99C104.523 115.414 109 110.937 109 105.414V95.2069C109 89.684 104.523 85.2069 99 85.2069H80C74.4772 85.2069 70 89.6841 70 95.2069V105.414C70 110.937 74.4772 115.414 80 115.414H91V128H40V65Z" fill="white"/>
</svg>
