<svg class = "svggg_" width="210" height="128" viewBox="0 0 210 128" fill="none" xmlns="http://www.w3.org/2000/svg">
<mask id="path-1-outside-1_368_393" maskUnits="userSpaceOnUse" x="0" y="0" width="210" height="128" fill="black">
<rect fill="white" width="210" height="128"/>
<path d="M5 103C5 114.046 13.9543 123 25 123H185C196.046 123 205 114.046 205 103V0H5V103Z"/>
</mask>
<path d="M5 103C5 114.046 13.9543 123 25 123H185C196.046 123 205 114.046 205 103V0H5V103Z" fill="#323232"/>
<path d="M0 103C0 116.807 11.1929 128 25 128H185C198.807 128 210 116.807 210 103H200C200 111.284 193.284 118 185 118H25C16.7157 118 10 111.284 10 103H0ZM205 0H5H205ZM0 0V103C0 116.807 11.1929 128 25 128V118C16.7157 118 10 111.284 10 103V0H0ZM185 128C198.807 128 210 116.807 210 103V0H200V103C200 111.284 193.284 118 185 118V128Z" fill="#5F5F5F" mask="url(#path-1-outside-1_368_393)"/>
<path d="M55 0H154V27H124V23C124 17.4772 119.523 13 114 13H95C89.4772 13 85 17.4772 85 23V33C85 38.5228 89.4772 43 95 43H114C119.523 43 124 38.5228 124 33V27H154V63C154 68.5228 149.523 73 144 73H65C59.4772 73 55 68.5228 55 63V0Z" fill="white"/>
</svg>
