<svg width="210" height="128" viewBox="0 0 210 128" fill="none" xmlns="http://www.w3.org/2000/svg">
<mask id="path-1-outside-1_368_906" maskUnits="userSpaceOnUse" x="0" y="0" width="210" height="128" fill="black">
<rect fill="white" width="210" height="128"/>
<path d="M5 103C5 114.046 13.9543 123 25 123H185C196.046 123 205 114.046 205 103V0H5V103Z"/>
</mask>
<path d="M5 103C5 114.046 13.9543 123 25 123H185C196.046 123 205 114.046 205 103V0H5V103Z" fill="#323232"/>
<path d="M0 103C0 116.807 11.1929 128 25 128H185C198.807 128 210 116.807 210 103H200C200 111.284 193.284 118 185 118H25C16.7157 118 10 111.284 10 103H0ZM205 0H5H205ZM0 0V103C0 116.807 11.1929 128 25 128V118C16.7157 118 10 111.284 10 103V0H0ZM185 128C198.807 128 210 116.807 210 103V0H200V103C200 111.284 193.284 118 185 118V128Z" fill="#5F5F5F" mask="url(#path-1-outside-1_368_906)"/>
<path d="M169 0V63C169 68.5228 164.523 73 159 73H149C143.477 73 139 68.5228 139 63V23C139 17.4772 134.523 13 129 13H122.5C118.358 13 115 16.3579 115 20.5V20.5C115 24.6421 111.642 28 107.5 28V28C103.358 28 100 31.3579 100 35.5V35.5C100 39.6421 96.6421 43 92.5 43V43C88.3579 43 85 46.3579 85 50.5V50.5C85 54.6421 81.6421 58 77.5 58V58C73.3579 58 70 61.3579 70 65.5V65.5C70 69.6421 66.6421 73 62.5 73H50C44.4772 73 40 68.5228 40 63V50.5C40 46.3579 43.3579 43 47.5 43V43C51.6421 43 55 39.6421 55 35.5V35.5C55 31.3579 58.3579 28 62.5 28V28C66.6421 28 70 24.6421 70 20.5V20.5C70 16.3579 66.6421 13 62.5 13H50C44.4772 13 40 8.52285 40 3V0H169Z" fill="white"/>
</svg>
