<svg class = "svggg_" width="210" height="128" viewBox="0 0 210 128" fill="none" xmlns="http://www.w3.org/2000/svg">
<mask id="path-1-outside-1_368_468" maskUnits="userSpaceOnUse" x="0" y="0" width="210" height="128" fill="black">
<rect fill="white" width="210" height="128"/>
<path d="M5 103C5 114.046 13.9543 123 25 123H185C196.046 123 205 114.046 205 103V0H5V103Z"/>
</mask>
<path d="M5 103C5 114.046 13.9543 123 25 123H185C196.046 123 205 114.046 205 103V0H5V103Z" fill="#323232"/>
<path d="M0 103C0 116.807 11.1929 128 25 128H185C198.807 128 210 116.807 210 103H200C200 111.284 193.284 118 185 118H25C16.7157 118 10 111.284 10 103H0ZM205 0H5H205ZM0 0V103C0 116.807 11.1929 128 25 128V118C16.7157 118 10 111.284 10 103V0H0ZM185 128C198.807 128 210 116.807 210 103V0H200V103C200 111.284 193.284 118 185 118V128Z" fill="#5F5F5F" mask="url(#path-1-outside-1_368_468)"/>
<path d="M40 23C40 17.4772 44.4772 13 50 13H55C60.5228 13 65 8.52285 65 3V0H95V3.5C95 8.74671 99.2533 13 104.5 13V13C109.747 13 114 8.74671 114 3.5V0H144V3C144 8.52285 148.477 13 154 13H159C164.523 13 169 17.4772 169 23V43V63C169 68.5228 164.523 73 159 73H149C143.477 73 139 68.5228 139 63V53C139 47.4772 134.523 43 129 43H80C74.4772 43 70 47.4772 70 53V63C70 68.5228 65.5228 73 60 73H50C44.4772 73 40 68.5228 40 63V43V23Z" fill="white"/>
</svg>
