<svg width="210" height="128" viewBox="0 0 210 128" fill="none" xmlns="http://www.w3.org/2000/svg">
<mask id="path-1-outside-1_368_465" maskUnits="userSpaceOnUse" x="0" y="0" width="210" height="128" fill="black">
<rect fill="white" width="210" height="128"/>
<path d="M5 113C5 118.523 9.47715 123 15 123H195C200.523 123 205 118.523 205 113V0H5V113Z"/>
</mask>
<path d="M5 113C5 118.523 9.47715 123 15 123H195C200.523 123 205 118.523 205 113V0H5V113Z" fill="#323232"/>
<path d="M0 113C0 121.284 6.71573 128 15 128H195C203.284 128 210 121.284 210 113H200C200 115.761 197.761 118 195 118H15C12.2386 118 10 115.761 10 113H0ZM205 0H5H205ZM0 0V113C0 121.284 6.71573 128 15 128V118C12.2386 118 10 115.761 10 113V0H0ZM195 128C203.284 128 210 121.284 210 113V0H200V113C200 115.761 197.761 118 195 118V128Z" fill="#5F5F5F" mask="url(#path-1-outside-1_368_465)"/>
<path d="M40 63C40 68.5228 44.4772 73 50 73H159C164.523 73 169 68.5228 169 63V0H40V63Z" fill="#515151"/>
<path d="M40 0H169V3C169 8.52285 164.523 13 159 13H80C74.4772 13 70 17.4772 70 23V33C70 38.5228 74.4772 43 80 43H159C164.523 43 169 47.4772 169 53V63C169 68.5228 164.523 73 159 73H50C44.4771 73 40 68.5228 40 63V0Z" fill="#D9D9D9"/>
</svg>
