<svg width="210" height="128" viewBox="0 0 210 128" fill="none" xmlns="http://www.w3.org/2000/svg">
<mask id="path-1-outside-1_368_359" maskUnits="userSpaceOnUse" x="0" y="0" width="210" height="128" fill="black">
<rect fill="white" width="210" height="128"/>
<path d="M5 25C5 13.9543 13.9543 5 25 5H185C196.046 5 205 13.9543 205 25V128H5V25Z"/>
</mask>
<path d="M5 25C5 13.9543 13.9543 5 25 5H185C196.046 5 205 13.9543 205 25V128H5V25Z" fill="#323232"/>
<path d="M0 25C0 11.1929 11.1929 0 25 0H185C198.807 0 210 11.1929 210 25H200C200 16.7157 193.284 10 185 10H25C16.7157 10 10 16.7157 10 25H0ZM205 128H5H205ZM0 128V25C0 11.1929 11.1929 0 25 0V10C16.7157 10 10 16.7157 10 25V128H0ZM185 0C198.807 0 210 11.1929 210 25V128H200V25C200 16.7157 193.284 10 185 10V0Z" fill="#5F5F5F" mask="url(#path-1-outside-1_368_359)"/>
<path d="M48.625 55C52.7671 55 56.125 51.6421 56.125 47.5V47.5C56.125 43.3579 59.4829 40 63.625 40H80.875C85.0171 40 88.375 43.3579 88.375 47.5V47.5C88.375 51.6421 91.7329 55 95.875 55H113.125C117.267 55 120.625 51.6421 120.625 47.5V47.5C120.625 43.3579 123.983 40 128.125 40H145.375C149.517 40 152.875 43.3579 152.875 47.5V47.5C152.875 51.6421 156.233 55 160.375 55H160.938C165.39 55 169 58.6097 169 63.0625V75C169 80.5228 164.523 85 159 85H80C74.4772 85 70 89.4772 70 95V105C70 110.523 74.4772 115 80 115H159C164.523 115 169 119.477 169 125V128H40V85V63.0625C40 58.6097 43.6097 55 48.0625 55H48.625Z" fill="white"/>
</svg>
