<svg width="210" height="128" viewBox="0 0 210 128" fill="none" xmlns="http://www.w3.org/2000/svg">
<mask id="path-1-outside-1_368_355" maskUnits="userSpaceOnUse" x="0" y="0" width="210" height="128" fill="black">
<rect fill="white" width="210" height="128"/>
<path d="M5 25C5 13.9543 13.9543 5 25 5H185C196.046 5 205 13.9543 205 25V128H5V25Z"/>
</mask>
<path d="M5 25C5 13.9543 13.9543 5 25 5H185C196.046 5 205 13.9543 205 25V128H5V25Z" fill="#323232"/>
<path d="M0 25C0 11.1929 11.1929 0 25 0H185C198.807 0 210 11.1929 210 25H200C200 16.7157 193.284 10 185 10H25C16.7157 10 10 16.7157 10 25H0ZM205 128H5H205ZM0 128V25C0 11.1929 11.1929 0 25 0V10C16.7157 10 10 16.7157 10 25V128H0ZM185 0C198.807 0 210 11.1929 210 25V128H200V25C200 16.7157 193.284 10 185 10V0Z" fill="#5F5F5F" mask="url(#path-1-outside-1_368_355)"/>
<path d="M40 65C40 59.4772 44.4772 55 50 55H60C65.5228 55 70 59.4772 70 65V96C70 101.523 74.4772 106 80 106V106C85.5228 106 90 101.523 90 96V65C90 59.4772 94.4772 55 100 55H110C115.523 55 120 59.4772 120 65V96.5C120 101.747 124.253 106 129.5 106V106C134.747 106 139 101.747 139 96.5V65C139 59.4772 143.477 55 149 55H159C164.523 55 169 59.4772 169 65V107.5C169 111.642 165.642 115 161.5 115V115C157.358 115 154 118.358 154 122.5V128H55V122.5C55 118.358 51.6421 115 47.5 115V115C43.3579 115 40 111.642 40 107.5V65Z" fill="white"/>
</svg>
