<svg width="210" height="128" viewBox="0 0 210 128" fill="none" xmlns="http://www.w3.org/2000/svg">
<mask id="path-1-outside-1_368_459" maskUnits="userSpaceOnUse" x="0" y="0" width="210" height="128" fill="black">
<rect fill="white" width="210" height="128"/>
<path d="M5 103C5 114.046 13.9543 123 25 123H185C196.046 123 205 114.046 205 103V0H5V103Z"/>
</mask>
<path d="M5 103C5 114.046 13.9543 123 25 123H185C196.046 123 205 114.046 205 103V0H5V103Z" fill="#323232"/>
<path d="M0 103C0 116.807 11.1929 128 25 128H185C198.807 128 210 116.807 210 103H200C200 111.284 193.284 118 185 118H25C16.7157 118 10 111.284 10 103H0ZM205 0H5H205ZM0 0V103C0 116.807 11.1929 128 25 128V118C16.7157 118 10 111.284 10 103V0H0ZM185 128C198.807 128 210 116.807 210 103V0H200V103C200 111.284 193.284 118 185 118V128Z" fill="#5F5F5F" mask="url(#path-1-outside-1_368_459)"/>
<rect width="129" height="73" transform="matrix(1 0 0 -1 40 73)" fill="#515151"/>
<path d="M40 63C40 68.5228 44.4772 73 50 73H60C65.5228 73 70 68.5228 70 63V32C70 26.4772 74.4772 22 80 22V22C85.5228 22 90 26.4772 90 32V63C90 68.5228 94.4772 73 100 73H110C115.523 73 120 68.5228 120 63V31.5C120 26.2533 124.253 22 129.5 22V22C134.747 22 139 26.2533 139 31.5V63C139 68.5228 143.477 73 149 73H159C164.523 73 169 68.5228 169 63V20.5C169 16.3579 165.642 13 161.5 13V13C157.358 13 154 9.64214 154 5.5V0H55V5.5C55 9.64214 51.6421 13 47.5 13V13C43.3579 13 40 16.3579 40 20.5V63Z" fill="#D9D9D9"/>
</svg>
