<svg width="210" height="129" viewBox="0 0 210 129" fill="none" xmlns="http://www.w3.org/2000/svg">
<mask id="path-1-outside-1_368_351" maskUnits="userSpaceOnUse" x="0" y="0" width="210" height="128" fill="black">
<rect fill="white" width="210" height="128"/>
<path d="M5 25C5 13.9543 13.9543 5 25 5H185C196.046 5 205 13.9543 205 25V128H5V25Z"/>
</mask>
<path d="M5 25C5 13.9543 13.9543 5 25 5H185C196.046 5 205 13.9543 205 25V128H5V25Z" fill="#323232"/>
<path d="M0 25C0 11.1929 11.1929 0 25 0H185C198.807 0 210 11.1929 210 25H200C200 16.7157 193.284 10 185 10H25C16.7157 10 10 16.7157 10 25H0ZM205 128H5H205ZM0 128V25C0 11.1929 11.1929 0 25 0V10C16.7157 10 10 16.7157 10 25V128H0ZM185 0C198.807 0 210 11.1929 210 25V128H200V25C200 16.7157 193.284 10 185 10V0Z" fill="#5F5F5F" mask="url(#path-1-outside-1_368_351)"/>
<path d="M154 63.5C154 59.3579 150.642 56 146.5 56H50C44.4772 56 40 60.4772 40 66V76C40 81.5228 44.4772 86 50 86H132.5C136.09 86 139 88.9101 139 92.5V92.5C139 96.0899 136.09 99 132.5 99H131.5C127.358 99 124 102.358 124 106.5V107.5C124 112.194 120.194 116 115.5 116H74C68.4772 116 64 120.477 64 126V129H154V121.5C154 117.358 157.358 114 161.5 114V114C165.642 114 169 110.642 169 106.5V78.5C169 74.3579 165.642 71 161.5 71V71C157.358 71 154 67.6421 154 63.5V63.5Z" fill="white"/>
</svg>
