<svg width="210" height="128" viewBox="0 0 210 128" fill="none" xmlns="http://www.w3.org/2000/svg">
<mask id="path-1-outside-1_368_456" maskUnits="userSpaceOnUse" x="0" y="0" width="210" height="128" fill="black">
<rect fill="white" width="210" height="128"/>
<path d="M5 103C5 114.046 13.9543 123 25 123H185C196.046 123 205 114.046 205 103V0H5V103Z"/>
</mask>
<path d="M5 103C5 114.046 13.9543 123 25 123H185C196.046 123 205 114.046 205 103V0H5V103Z" fill="#323232"/>
<path d="M0 103C0 116.807 11.1929 128 25 128H185C198.807 128 210 116.807 210 103H200C200 111.284 193.284 118 185 118H25C16.7157 118 10 111.284 10 103H0ZM205 0H5H205ZM0 0V103C0 116.807 11.1929 128 25 128V118C16.7157 118 10 111.284 10 103V0H0ZM185 128C198.807 128 210 116.807 210 103V0H200V103C200 111.284 193.284 118 185 118V128Z" fill="#5F5F5F" mask="url(#path-1-outside-1_368_456)"/>
<path d="M154 65.5C154 69.6421 150.642 73 146.5 73H50C44.4772 73 40 68.5228 40 63V53C40 47.4772 44.4772 43 50 43H132.5C136.09 43 139 40.0899 139 36.5V36.5C139 32.9101 136.09 30 132.5 30H131.5C127.358 30 124 26.6421 124 22.5V21.5C124 16.8056 120.194 13 115.5 13H74C68.4772 13 64 8.52285 64 3V0H154V7.5C154 11.6421 157.358 15 161.5 15V15C165.642 15 169 18.3579 169 22.5V50.5C169 54.6421 165.642 58 161.5 58V58C157.358 58 154 61.3579 154 65.5V65.5Z" fill="white"/>
</svg>
