<svg width="3218" height="30" viewBox="0 0 3218 30" fill="none" xmlns="http://www.w3.org/2000/svg">
<rect x="864" width="10" height="30" rx="5" fill="#808080"/>
<rect x="1038" width="10" height="30" rx="5" fill="#808080"/>
<rect x="651" width="10" height="30" rx="5" fill="#808080"/>
<rect x="825" width="10" height="30" rx="5" fill="#808080"/>
<rect x="434" width="10" height="30" rx="5" fill="#808080"/>
<rect x="608" width="10" height="30" rx="5" fill="#808080"/>
<rect width="10" height="30" rx="5" fill="#808080"/>
<rect x="174" width="10" height="30" rx="5" fill="#808080"/>
<rect x="217" width="10" height="30" rx="5" fill="#808080"/>
<rect x="391" width="10" height="30" rx="5" fill="#808080"/>
<rect x="3034" width="10" height="30" rx="5" fill="#808080"/>
<rect x="3208" width="10" height="30" rx="5" fill="#808080"/>
<rect x="2821" width="10" height="30" rx="5" fill="#808080"/>
<rect x="2995" width="10" height="30" rx="5" fill="#808080"/>
<rect x="2604" width="10" height="30" rx="5" fill="#808080"/>
<rect x="2778" width="10" height="30" rx="5" fill="#808080"/>
<rect x="2170" width="10" height="30" rx="5" fill="#808080"/>
<rect x="2344" width="10" height="30" rx="5" fill="#808080"/>
<rect x="2387" width="10" height="30" rx="5" fill="#808080"/>
<rect x="2561" width="10" height="30" rx="5" fill="#808080"/>
<rect x="1951" width="10" height="30" rx="5" fill="#808080"/>
<rect x="2125" width="10" height="30" rx="5" fill="#808080"/>
<rect x="1738" width="10" height="30" rx="5" fill="#808080"/>
<rect x="1912" width="10" height="30" rx="5" fill="#808080"/>
<rect x="1521" width="10" height="30" rx="5" fill="#808080"/>
<rect x="1695" width="10" height="30" rx="5" fill="#808080"/>
<rect x="1087" width="10" height="30" rx="5" fill="#808080"/>
<rect x="1261" width="10" height="30" rx="5" fill="#808080"/>
<rect x="1304" width="10" height="30" rx="5" fill="#808080"/>
<rect x="1478" width="10" height="30" rx="5" fill="#808080"/>
</svg>
